<?xml version="1.0" standalone="no"?>
<!DOCTYPE svg PUBLIC "-//W3C//DTD SVG 20010904//EN"
 "http://www.w3.org/TR/2001/REC-SVG-20010904/DTD/svg10.dtd">
<svg version="1.0" xmlns="http://www.w3.org/2000/svg"
 width="512.000000pt" height="512.000000pt" viewBox="0 0 512.000000 512.000000"
 preserveAspectRatio="xMidYMid meet">
<metadata>
Created by potrace 1.14, written by Peter Selinger 2001-2017
</metadata>
<g transform="translate(0.000000,512.000000) scale(0.100000,-0.100000)"
fill="#000000" stroke="none">
<path d="M397 5104 c-99 -24 -167 -62 -243 -138 -77 -78 -114 -144 -139 -248
-22 -95 -22 -4221 0 -4316 25 -104 62 -170 139 -248 78 -77 144 -114 248 -139
95 -22 4221 -22 4316 0 104 25 170 62 248 139 77 78 114 144 139 248 22 95 22
4221 0 4316 -25 104 -62 170 -139 248 -78 77 -144 114 -248 139 -92 22 -4231
21 -4321 -1z m3621 -1126 l-3 -373 -163 -21 -163 -20 -29 32 c-28 32 -90 151
-90 173 0 8 -91 11 -315 11 l-315 0 0 -1207 1 -1208 97 -46 c53 -26 117 -64
140 -85 l43 -39 -20 -175 c-12 -96 -24 -192 -27 -212 l-6 -38 -607 0 -607 0
-25 216 -25 216 41 35 c22 19 86 57 143 84 l102 50 0 1205 0 1204 -314 0 -314
0 -18 -46 c-10 -26 -35 -73 -56 -105 -44 -69 -31 -67 -235 -42 l-143 17 0 373
0 373 1455 0 1455 0 -2 -372z"/>
</g>
</svg>
